<?xml version="1.0" encoding="iso-8859-1"?>
<!-- Generator: Adobe Illustrator 16.0.0, SVG Export Plug-In . SVG Version: 6.00 Build 0)  -->
<!DOCTYPE svg PUBLIC "-//W3C//DTD SVG 1.1//EN" "http://www.w3.org/Graphics/SVG/1.1/DTD/svg11.dtd">
<svg version="1.1" id="Capa_1" xmlns="http://www.w3.org/2000/svg" xmlns:xlink="http://www.w3.org/1999/xlink" x="0px" y="0px"
	 width="24.799px" height="24.799px" viewBox="0 0 24.799 24.799" style="enable-background:new 0 0 24.799 24.799;"
	 xml:space="preserve">
<g>
	<g>
		<g>
			<path d="M13.074,13.332c-0.125-0.265-0.39-0.449-0.701-0.449c-0.432,0-0.781,0.351-0.781,0.781c0,0.43,0.35,0.78,0.781,0.78
				c0.254,0,0.468-0.129,0.611-0.315c0.162,0.013,0.34,0.021,0.542,0.021c0.649,0,1.47-0.081,2.224-0.37
				c0.303-0.469,0.559-0.963,0.773-1.455C15.661,13.324,13.987,13.382,13.074,13.332z"/>
		</g>
		<g>
			<path d="M24.229,22.516l-0.762-4.148c-0.199-1.096-1.212-2.134-2.306-2.357l-5.116-1.051c0.707-0.896,1.262-1.982,1.648-3.068
				c0.656-0.251,1.31-0.854,1.488-1.622c0.236-1.021-0.049-1.925-0.688-2.31l-0.013-0.72c0.545-1.743,0.797-4.586-1.848-6.069
				c-1.184-0.662-2.153-0.688-2.886-0.438C13.631,0.436,13.964,0,13.964,0c-0.603-0.009-0.914,0.316-1.042,0.502
				c-0.812-0.356-1.866-0.498-3.21-0.191c-4.31,0.984-4.763,6.66-3.949,7.885C5.152,8.607,4.905,9.51,5.175,10.51
				c0.207,0.77,0.886,1.348,1.552,1.574c0.412,1.057,0.987,2.103,1.705,2.965l-1.707,0.369l-3.159,0.687
				c-1.092,0.233-2.095,1.28-2.284,2.38l-0.716,4.156c-0.099,0.57,0.04,1.109,0.389,1.523c0.35,0.41,0.86,0.635,1.438,0.635
				l20.027-0.105h0.027c0.571-0.01,1.071-0.243,1.409-0.655C24.203,23.621,24.332,23.08,24.229,22.516z M17.225,16.032l-3.877,4.578
				l-0.594-2.438l0.774-0.717l-0.5-0.451c0.907-0.186,1.706-0.672,2.39-1.342L17.225,16.032z M11.864,6.5
				c1.496,0.463,2.398-0.328,2.845-1.357c1.426,0.133,2.411,1.683,2.83,2.707l-0.95,0.548V7.799h-4v0.562h-0.812V7.799h-4v0.598
				L6.694,7.773L6.691,7.581C6.763,6.752,7.521,5.162,11.864,6.5z M16.088,8.298v1.75h-3v-1.75H16.088z M11.276,8.298v1.75h-3v-1.75
				H11.276z M7.405,11.261c-0.35,0.08-1.169-0.348-1.341-0.986c-0.177-0.65-0.031-1.266,0.323-1.374
				c0.105-0.028,0.216-0.009,0.327,0.046L6.704,8.356l1.072,0.618v1.574h4V8.86h0.812v1.688h4V8.974l1.001-0.577l0.006,0.36
				c0.054-0.028,0.108-0.049,0.162-0.062c-0.001,0.007-0.001,0.021-0.003,0.025c0.014,0.014,0.034,0.006,0.062-0.022
				c0.035-0.003,0.066-0.009,0.103,0c0.357,0.096,0.525,0.704,0.373,1.363c-0.147,0.638-0.946,1.091-1.298,1.029
				c-0.12,0.389-0.286,0.808-0.472,1.229c0.004-0.005,0.009-0.008,0.013-0.013l0.611,0.518c-0.384,0.452-0.875,0.749-1.397,0.95
				c-0.222,0.344-0.46,0.676-0.727,0.971c-0.11,0.12-0.226,0.237-0.343,0.346c-0.127,0.121-0.26,0.229-0.396,0.336
				c-0.589,0.445-1.257,0.729-2.002,0.742c-0.762,0.017-1.447-0.248-2.057-0.679c-0.142-0.101-0.279-0.209-0.411-0.325
				c-0.122-0.105-0.239-0.222-0.353-0.341C8.501,13.824,7.805,12.434,7.405,11.261z M9.089,15.74
				c0.724,0.672,1.566,1.146,2.512,1.295l-0.47,0.434l0.784,0.709l-0.567,2.432l-3.997-4.491L9.089,15.74z M23.234,23.52
				c-0.187,0.227-0.467,0.354-0.796,0.356l0.007,0.406l-0.023-0.406l-3.911,0.021L18.5,21.755c-0.002-0.226-0.185-0.404-0.411-0.404
				c-0.001,0-0.003,0-0.006,0c-0.222,0.005-0.396,0.187-0.396,0.408l0.011,2.146L7.123,23.957L7.11,21.814
				c-0.001-0.226-0.184-0.408-0.41-0.405c-0.001,0-0.003,0-0.004,0c-0.224,0.003-0.401,0.185-0.401,0.409l0.013,2.145l-3.915,0.021
				c-0.332,0.001-0.62-0.12-0.812-0.346c-0.19-0.227-0.264-0.531-0.208-0.858l0.718-4.156c0.132-0.769,0.889-1.562,1.654-1.727
				l2.692-0.581l5.641,6.338c0.079,0.088,0.191,0.14,0.31,0.138h0.002c0.117-0.004,0.227-0.057,0.304-0.146l5.439-6.428l2.864,0.59
				c0.768,0.158,1.53,0.939,1.67,1.708l0.76,4.147C23.488,22.987,23.419,23.295,23.234,23.52z"/>
		</g>
	</g>
</g>
<g>
</g>
<g>
</g>
<g>
</g>
<g>
</g>
<g>
</g>
<g>
</g>
<g>
</g>
<g>
</g>
<g>
</g>
<g>
</g>
<g>
</g>
<g>
</g>
<g>
</g>
<g>
</g>
<g>
</g>
</svg>
