<svg height="512" viewBox="0 0 64 64" width="512" xmlns="http://www.w3.org/2000/svg"><g id="Calendar"><path d="m3 21h58a0 0 0 0 1 0 0v28a8 8 0 0 1 -8 8h-46a4 4 0 0 1 -4-4v-32a0 0 0 0 1 0 0z" fill="#ffde55"/><path d="m59 21v8a26 26 0 0 1 -26 26h-28a3.961 3.961 0 0 1 -1.64-.36 3.994 3.994 0 0 0 3.64 2.36h46a8 8 0 0 0 8-8v-28z" fill="#e5c84d"/><path d="m57 9h-50a4 4 0 0 0 -4 4v8h58v-8a4 4 0 0 0 -4-4z" fill="#006df0"/><path d="m48 15a3 3 0 0 0 3-3v-6a3 3 0 0 0 -6 0v6a3 3 0 0 0 3 3z" fill="#ff9811"/><path d="m32 15a3 3 0 0 0 3-3v-6a3 3 0 0 0 -6 0v6a3 3 0 0 0 3 3z" fill="#ff9811"/><path d="m16 15a3 3 0 0 0 3-3v-6a3 3 0 0 0 -6 0v6a3 3 0 0 0 3 3z" fill="#ff9811"/><g fill="#ed1c24"><rect height="5" rx="1" width="6" x="23" y="28"/><rect height="5" rx="1" width="6" x="11" y="28"/><rect height="5" rx="1" width="6" x="47" y="28"/><rect height="5" rx="1" width="6" x="23" y="37"/><rect height="5" rx="1" width="6" x="11" y="37"/><rect height="5" rx="1" width="6" x="23" y="46"/><rect height="5" rx="1" width="6" x="35" y="28"/><rect height="5" rx="1" width="6" x="35" y="37"/><rect height="5" rx="1" width="6" x="11" y="46"/></g><circle cx="49" cy="49" fill="#7ed63e" r="12"/><path d="m49 37c-.338 0-.669.023-1 .05a11.991 11.991 0 0 1 0 23.9c.331.027.662.05 1 .05a12 12 0 0 0 0-24z" fill="#71c138"/><path d="m54.778 44.808-7.778 7.778-3.535-3.536a1 1 0 0 0 -1.414 1.414l4.242 4.243a1 1 0 0 0 1.414 0l8.485-8.485a1 1 0 0 0 -1.414-1.414z" fill="#f1f2f2"/></g></svg>