<svg width="35" height="34" viewBox="0 0 35 34" fill="none" xmlns="http://www.w3.org/2000/svg">
<path d="M2.91956 17.0026C2.92125 23.9717 8.13806 29.9056 15.2235 30.9979V21.0968H11.5237V17.0026H15.2279V13.8859C15.0623 12.4091 15.5816 10.9373 16.6449 9.8696C17.7082 8.80191 19.2053 8.24905 20.7302 8.36094C21.8247 8.37812 22.9165 8.47281 23.9968 8.64428V12.1279H22.1535C21.5189 12.0471 20.8809 12.2507 20.4192 12.6813C19.9575 13.1119 19.7221 13.7229 19.7793 14.3421V17.0026H23.8204L23.1743 21.0982H19.7793V30.9979C27.4421 29.8215 32.8155 23.0231 32.0068 15.528C31.198 8.0328 24.4902 2.46468 16.7428 2.85745C8.9955 3.25022 2.92079 9.46638 2.91956 17.0026Z" fill="#0B2739"/>
</svg>
