<svg width="34" height="34" viewBox="0 0 34 34" fill="none" xmlns="http://www.w3.org/2000/svg">
<path d="M16.9867 2.5332C8.77559 2.52988 2.125 9.17715 2.125 17.3816C2.125 23.8695 6.28535 29.3846 12.0793 31.41C12.8596 31.6059 12.74 31.0514 12.74 30.6729V28.0996C8.23438 28.6275 8.05176 25.6459 7.74961 25.1479C7.13867 24.1053 5.69434 23.8396 6.12598 23.3416C7.15195 22.8137 8.19785 23.4744 9.40976 25.2641C10.2863 26.5623 11.9963 26.3432 12.8629 26.1273C13.0521 25.3471 13.4572 24.6498 14.015 24.1086C9.34668 23.2719 7.40098 20.423 7.40098 17.0363C7.40098 15.3928 7.94219 13.882 9.00469 12.6635C8.32734 10.6547 9.06777 8.93477 9.16738 8.6791C11.0965 8.50645 13.102 10.0604 13.258 10.1832C14.3537 9.8877 15.6055 9.73164 17.0066 9.73164C18.4145 9.73164 19.6695 9.89434 20.7752 10.1932C21.1504 9.90762 23.0098 8.57285 24.8027 8.73555C24.899 8.99121 25.6228 10.6713 24.9853 12.6535C26.0611 13.8754 26.609 15.3994 26.609 17.0463C26.609 20.4397 24.65 23.2918 19.9684 24.1152C20.3694 24.5096 20.6877 24.9799 20.905 25.4987C21.1222 26.0174 21.2338 26.5743 21.2334 27.1367V30.8721C21.26 31.1709 21.2334 31.4664 21.7314 31.4664C27.6117 29.4842 31.8451 23.9293 31.8451 17.385C31.8451 9.17715 25.1912 2.5332 16.9867 2.5332Z" fill="#0B2739"/>
</svg>
