<svg id="color" enable-background="new 0 0 24 24" height="512" viewBox="0 0 24 24" width="512" xmlns="http://www.w3.org/2000/svg"><path d="m19.08 3.44-3.8 14.75c-.09.33-.38.56-.73.56h-5.1c-.34 0-.64-.23-.72-.56l-3.81-14.75c-.21-.83-.04-1.7.49-2.38.52-.67 1.31-1.06 2.17-1.06h8.84c.86 0 1.65.39 2.17 1.06.53.68.7 1.55.49 2.38z" fill="#f44336"/><path d="m18.331 6.347h-12.66l3.059 11.843c.08.33.38.56.72.56h5.1c.35 0 .64-.23.73-.56z" fill="#d43a2f"/><path d="m14 0v18.75h-4v-18.75z" fill="#fafafa"/><path d="m18.96 15.258c-.09-.267-.322-.46-.6-.501l-3.925-.585-1.774-3.743c-.123-.262-.388-.429-.677-.429h-.002c-.291.001-.555.17-.677.434l-1.749 3.754-3.922.612c-.278.043-.508.239-.596.506s-.02.561.177.761l2.87 2.918-.663 4.146c-.045.283.075.568.311.732.129.092.28.137.431.137.126 0 .251-.031.365-.095l3.494-1.944 3.507 1.92c.251.139.56.121.794-.046.234-.166.353-.452.306-.735l-.691-4.141 2.85-2.939c.195-.202.262-.496.171-.762z" fill="#ffc107"/><path d="m12 0h-2v13.234l1.304-2.8c.123-.264.386-.433.677-.434h.002.016v-10z" fill="#dadada"/><path d="m11.984 10h-.002c-.291.001-.555.17-.677.434l-1.305 2.8-.444.954-3.922.612c-.278.043-.508.239-.596.506s-.02.561.177.761l2.87 2.918-.663 4.146c-.045.283.075.568.311.732.129.092.28.137.431.137.126 0 .251-.031.365-.095l3.471-1.932v-11.973c-.005 0-.011 0-.016 0z" fill="#dea806"/></svg>