<svg width="34" height="34" viewBox="0 0 34 34" fill="none" xmlns="http://www.w3.org/2000/svg">
<path d="M16.9999 0.679688C7.98653 0.679688 0.679932 7.98629 0.679932 16.9997C0.679932 26.0131 7.98653 33.3197 16.9999 33.3197C26.0133 33.3197 33.3199 26.0131 33.3199 16.9997C33.3199 7.98629 26.0133 0.679688 16.9999 0.679688ZM13.0049 23.764H9.70013V13.1288H13.0049V23.764ZM11.3321 11.8232C10.2883 11.8232 9.61343 11.0837 9.61343 10.1691C9.61343 9.23579 10.3087 8.51839 11.3746 8.51839C12.4405 8.51839 13.0933 9.23579 13.1137 10.1691C13.1137 11.0837 12.4405 11.8232 11.3321 11.8232ZM25.0749 23.764H21.7701V17.8701C21.7701 16.4982 21.2907 15.5666 20.0956 15.5666C19.1827 15.5666 18.6404 16.1973 18.4007 16.8042C18.3123 17.0201 18.2902 17.3261 18.2902 17.6304V23.7623H14.9837V16.5203C14.9837 15.1926 14.9412 14.0825 14.897 13.1271H17.7683L17.9196 14.6044H17.9859C18.4211 13.9108 19.487 12.8874 21.2703 12.8874C23.4446 12.8874 25.0749 14.3443 25.0749 17.4757V23.764Z" fill="#0B2739"/>
</svg>
