<?xml version="1.0" encoding="utf-8"?>
<!-- Generator: Adobe Illustrator 24.0.2, SVG Export Plug-In . SVG Version: 6.00 Build 0)  -->
<svg version="1.1" id="Capa_1" xmlns="http://www.w3.org/2000/svg" xmlns:xlink="http://www.w3.org/1999/xlink" x="0px" y="0px"
	 viewBox="0 0 363.46 103.85" style="enable-background:new 0 0 363.46 103.85;" xml:space="preserve">
<style type="text/css">
	.st0{fill:#FFFFFF;}
</style>
<g>
	<path class="st0" d="M41.7,98.51c-2.1-2.55-5.88-1.37-8.11-3.63c-0.8-1.45-0.39-2.62,0.8-3.62c4.49-0.85,8.78,0.87,13.16,1.28
		c8.81,0.84,16.96-0.94,24.27-5.33c9.46-5.69,16.54-13.68,19.41-24.77c0.5-1.91,0.82-3.91,2.16-5.5c2.08-1.03,4.49-2.79,4.17,1.79
		c-2.09,18.43-17.35,34.69-36.38,38.78c-0.9,0.19-2.06-0.24-2.54,1.01C52.99,98.51,47.34,98.51,41.7,98.51z"/>
	<path class="st0" d="M11.56,25.6C18.32,14.25,28.6,7.89,41.12,4.73c0.9-0.23,2.05,0.18,2.57-1.02c2.66,0,5.31,0,7.97,0
		c1.32,2.25-0.4,3.35-1.71,4.6c-3.17,2.04-6.99,1.65-10.43,2.75c-6.53,2.1-12.46,5.09-17.16,10.27c-1.98,2.19-4.08,4.33-7.08,5.21
		C13.9,26.77,12.58,26.79,11.56,25.6z"/>
	<path class="st0" d="M49.66,7.79c0.5-1.44,2.14-2.33,2-4.08c2.33,0,4.65,0,6.98,0c0.62,1.32,2.07,0.66,3,1.24
		c1.24,1.93,0.48,3.31-1.22,4.43C56.61,10.42,52.91,10.61,49.66,7.79z"/>
	<path class="st0" d="M357.69,17.6c0.3,0.05,0.6,0.08,0.9,0.08c0,9.98,0,19.96,0,29.94l-0.46-0.02l-0.45,0.08
		c-0.33-0.36-0.82-0.64-0.89-1.14c-1.28-9.27-1.29-18.53,0.01-27.8C356.86,18.23,357.36,17.96,357.69,17.6z"/>
	<path class="st0" d="M209.25,26.03c-1.42,8.3-2.87,16.59-4.24,24.89c-0.46,2.81-1.05,4.7-4.81,4.69c-3.67-0.01-4.36-1.73-4.87-4.6
		c-1.38-7.8-2.91-15.58-5.23-23.32c0,7.95-0.12,15.9,0.06,23.84c0.07,3.01-0.74,4.03-3.88,4.02c-3.16-0.01-3.42-1.49-3.41-3.98
		c0.07-12.63,0.16-25.25-0.05-37.88c-0.06-3.54,1.44-3.75,4.35-4.05c5.42-0.56,7.94,0.98,8.61,6.82c0.89,7.84,2.86,15.57,5.13,23.32
		c1.43-8.36,3.28-16.67,4.15-25.09c0.75-7.27,5.79-4.48,9.49-4.88c4.83-0.53,3.14,3.26,3.16,5.45c0.14,11.96-0.01,23.92,0.12,35.88
		c0.03,3.04-0.55,4.39-4.06,4.45c-3.71,0.06-3.93-1.64-3.89-4.5c0.12-8.3,0.04-16.61,0.04-24.92
		C209.71,26.12,209.48,26.08,209.25,26.03z"/>
	<path class="st0" d="M342.87,9.47c-6.44,0.79-9.81,4.45-9.98,11.45c-0.19,7.64-0.17,15.28,0.01,22.92
		c0.16,6.86,3.37,10.73,9.2,11.71c7.93,1.33,12.98-1.22,15.58-7.87c0.01-10.03,0.01-20.05,0.02-30.08
		C355.46,10.88,351.04,8.46,342.87,9.47z M350.56,43.94c-0.18,2.38-2.78,4.34-5.01,4.31c-2.95-0.03-4.66-2.3-5-5
		c-0.4-3.14,0.02-6.04,0.1-9.17c0.1-3.71-0.55-7.21-0.1-10.96c0.76-6.35,9.43-6.5,10,0c0.54,6.16-0.06,12.36,0.39,18.48
		C351.01,42.52,350.86,43.29,350.56,43.94z"/>
	<path class="st0" d="M157.38,13.24c-0.15,1.2-0.24,2.7-0.54,4.16c-0.32,1.56-0.14,2.64,1.75,2.68c1.36,0.03,2.71,0.12,2.92-1.79
		c0.15-1.32,0.65-2.63,0.59-3.93c-0.15-3.48,0.94-5.34,4.82-4.68c4.4,0.75,1.7,3.72,1.74,5.67c0.05,2.15-1.31,4.11,2.28,5.29
		c1.92,0.63,1.26,3.56-1.22,4.75c-3.65,1.75-4.21,9.4-0.84,11.83c2,1.44,0.82,4.07,0.22,4.23c-6.24,1.71-3.61,7.17-4.71,10.92
		c-0.53,1.8-0.72,2.92-2.95,3.03c-3.12,0.16-4.76-0.51-3.94-4.09c0.48-2.09,0.54-4.27,0.81-6.41c0.2-1.57-0.16-2.59-2.04-2.52
		c-1.45,0.05-2.62,0.25-2.82,2.03c-0.29,2.64-0.93,5.27-0.93,7.9c0,3.9-2.67,2.99-4.83,3c-3.35,0.01-1.89-2.23-1.73-3.86
		c0.22-2.15,0.37-4.3,0.65-6.44c0.13-1.01,0.44-1.99-0.8-2.5c-4.72-1.93-2.71-3.72,0.13-5.44c3.05-1.85,3.46-9.54,0.57-11.74
		c-2-1.53-1.19-4.26-0.09-4.49c4.87-1.04,3.54-4.82,4.05-7.81c0.49-2.84,3.85-4.6,6.18-3.21C158.04,10.62,157.23,11.87,157.38,13.24
		z"/>
	<path class="st0" d="M108.63,32.31c-0.01-4.15-0.19-8.3,0.03-12.44c0.42-7.76,5.82-11.48,14.82-10.42
		c7.05,0.83,10.94,6.26,9.95,13.37c-0.43,3.09-2.52,2.02-4.06,2.06c-1.59,0.04-3.94,0.88-3.91-2.22c0.01-1.32,0.05-2.68-0.21-3.96
		c-0.43-2.07-1.91-3.01-3.99-2.99c-2.02,0.02-3.93,0.79-3.97,2.92c-0.18,9.11-0.16,18.23-0.06,27.34c0.03,2.24,1.8,2.99,3.84,3
		c2.19,0.01,3.96-0.67,4.29-3.16c0.15-1.14,0.24-2.34,0.07-3.47c-0.53-3.5,1.23-3.99,4.25-4.08c3.27-0.1,3.64,1.22,3.77,4.05
		c0.61,12.64-8.16,14.93-17.37,12.9c-4.98-1.1-7.23-5.01-7.41-9.95C108.51,40.94,108.64,36.62,108.63,32.31z"/>
	<path class="st0" d="M296.99,33.49c0-5.18-0.2-9.18,0.04-13.15c0.5-7.96,5.29-11.65,13.96-11.02c7.51,0.55,11.06,4.88,10.87,12.59
		c-0.07,2.98-1.48,3.19-3.71,3.05c-2.07-0.13-4.65,0.58-4.26-3.01c0.05-0.49-0.01-1,0-1.49c0.02-2.96-1.21-4.8-4.39-4.74
		c-3.37,0.06-4,2.33-4,5.09c0.01,7.81,0.04,15.61-0.02,23.42c-0.02,3,1.09,4.81,4.29,4.76c3.27-0.05,4.05-2.09,4.15-4.97
		c0.19-5.44,1.64-6.68,6.04-5.65c0.84,0.2,1.41,0.38,1.77,1.34c2.15,5.81-1.6,13.92-7.3,15.62c-8.25,2.46-15.44-0.96-16.99-8.14
		C296.37,42.27,297.26,37.25,296.99,33.49z"/>
	<path class="st0" d="M263.07,32.47c0-6.32,0.1-12.64-0.05-18.96c-0.06-2.64,0.46-3.94,3.5-3.81c5.47,0.23,10.96,0.19,16.44,0.01
		c2.65-0.08,2.94,1.2,2.92,3.33c-0.02,2.08-0.2,3.64-2.88,3.4c-1.48-0.13-2.99-0.04-4.48-0.02c-7.88,0.14-6.4-1.07-7.02,6.85
		c-0.43,5.45,2.08,6.06,6.33,5.56c2.98-0.35,5.72-0.36,5.1,4.14c-0.27,1.93-0.91,2.47-2.74,2.56c-2.75,0.15-6.67-1.39-7.96,0.85
		c-1.38,2.4-0.42,6.12-0.63,9.25c-0.16,2.38,0.77,3.29,3.15,3.15c2.48-0.14,4.99,0.13,7.47-0.07c2.79-0.22,3.72,0.74,3.72,3.61
		c0,2.92-1.37,3.19-3.68,3.15c-5.15-0.11-10.3-0.22-15.44,0.03c-3.25,0.16-3.88-1.22-3.81-4.09
		C263.19,45.11,263.07,38.78,263.07,32.47z"/>
	<path class="st0" d="M230.44,32.48c0-6.15,0.08-12.31-0.03-18.46c-0.05-2.96,0.54-4.6,4.12-4.35c4.96,0.34,9.96,0.2,14.94,0.04
		c2.58-0.09,3.03,1.21,3.08,3.32c0.05,2.14-0.37,3.63-2.97,3.4c-1.15-0.1-2.32-0.01-3.49-0.01c-7.24,0-6.93,0.02-7.35,7.47
		c-0.27,4.77,1,6.7,5.92,5.97c2.35-0.35,5.03-0.79,4.98,3.36c-0.05,4.26-2.91,3.45-5.14,3.19c-4.48-0.51-6.29,0.95-5.72,5.64
		c0.4,3.28-0.11,6.66,0.13,9.96c0.24,3.27-1.59,3.4-4,3.35c-2.44-0.04-4.63,0.22-4.52-3.44C230.58,45.46,230.44,38.97,230.44,32.48z
		"/>
	<path class="st0" d="M109.33,66.43c-1.26-1.04-1.03-2.05,0.34-2.57c0.88-0.33,1.96-0.17,2.95-0.17
		c44.65,0.01,89.29,0.02,133.94,0.05c0.82,0,1.65,0.13,2.47,0.2c-0.18,0.66-0.58,1.11-1.21,1.37c-13.94,0.61-27.88,0.1-41.82,0.27
		c-13.86,0-27.72,0-41.58,0c-16.43,0-32.86-0.01-49.29,0.01C113.18,65.59,111.14,65.23,109.33,66.43z"/>
	<path class="st0" d="M134.67,86.11c-0.79,1.68,0.45,3.86-2.39,5.39c0-4.43-0.02-8.86,0.02-13.29c0.01-1.01,0.73-1.36,1.67-1.36
		c1.42-0.01,2.1,0.8,2.28,2.1c0.27,1.95,0.34,3.95,1.63,6.21c0.44-2.12,0.8-3.85,1.17-5.58c0.27-1.26,0.27-2.74,2.25-2.58
		c1.87,0.15,1.94,1.42,1.93,2.82c-0.02,2.81,0.07,5.63-0.04,8.44c-0.05,1.17,0.73,3.08-1.22,3.21c-2.07,0.14-1.28-1.82-1.5-2.98
		c-0.12-0.64-0.2-1.29-0.32-2.06c-1.52,1.5,0.08,4.87-2.34,4.94C134.68,91.46,136.56,87.42,134.67,86.11z"/>
	<path class="st0" d="M154.45,89.62c-0.16,0.95-0.13,2-1.58,1.94c-1.3-0.05-1.55-0.94-1.72-1.95c-0.91-1.32-1.27-2.74-1.19-3.23
		c-0.02,0.97,0.79,3.23-0.73,5.08c-1.16,0.15-1.9-0.17-1.9-1.52c0.01-3.64-0.02-7.28,0.01-10.92c0.01-0.97-0.03-2.09,1.38-2.16
		c1.21-0.05,2.33,0.1,2.61,1.63c0.38,2.11,0.81,4.21,1.27,6.54c1.64-1.96,1.53-4.19,1.86-6.28c0.19-1.18,0.96-1.64,2.06-1.72
		c1.2-0.09,1.91,0.46,1.91,1.67c-0.01,3.97,0,7.93-0.14,11.89c-0.04,1.07-1.09,0.98-1.93,0.87c-1.54-2.21-0.35-4.61-0.5-6.91
		c0-0.67-1.11,0.02-0.46-0.11c0.11-0.02,0.12,0.08,0.18,0.26C156.11,86.57,155.56,88.15,154.45,89.62z"/>
	<path class="st0" d="M177.1,84.59c0,1.75,0.02,3.5-0.01,5.26c-0.01,0.9-0.34,1.66-1.38,1.65c-1.04-0.01-1.34-0.79-1.35-1.68
		c-0.02-3.31-0.06-6.62-0.02-9.93c0.02-1.23-0.41-2.78,1.58-3.06c1.76-0.24,2.26,0.93,2.71,2.25c0.31,0.92,0.68,1.83,1.04,2.79
		c0.28-0.16,0.59-0.23,0.69-0.42c0.78-1.41-0.91-4.45,1.86-4.23c1.89,0.15,0.81,2.79,0.91,4.3c0.17,2.47,0.08,4.96,0.03,7.44
		c-0.03,1.05,0.41,2.44-1.39,2.62c-1.56,0.15-1.94-0.96-2.3-2.08c-0.54-1.67-1.06-3.35-1.59-5.02
		C177.62,84.51,177.36,84.55,177.1,84.59z"/>
	<path class="st0" d="M109.33,66.43c0.64-2.62,2.78-1.87,4.45-1.87c16.83-0.01,33.65,0.05,50.48,0.08c0.59,0.62,0.59,1.25,0,1.87
		C145.95,66.8,127.64,67.01,109.33,66.43z"/>
	<path class="st0" d="M97.55,58.72c-0.5-3.02-2.15-2.06-3.81-1.11c-0.78-0.45-1.32-1.24-1.2-2.02c1.04-6.7-1.19-13.06-1.88-19.58
		c0.98-2.42,2.1-4.41,4.68-1.37C98.41,42.44,99.64,50.43,97.55,58.72z"/>
	<path class="st0" d="M290.33,83.1c0.56-2.18-0.7-4.47,2.4-7.41c0,5.82,0.03,10.4-0.03,14.99c-0.01,0.81-0.8,0.87-1.48,0.88
		c-1.03,0.02-1.29-0.69-1.68-1.46c-0.93-1.87-0.84-4.17-2.4-5.81c-1.47,2.26,0.95,7-1.59,6.78c-3.26-0.29-1.25-4.67-1.32-7.16
		c-0.07-2.29-1.96-6.15,1.55-6.82C289.63,76.36,287.73,81.73,290.33,83.1z"/>
	<path class="st0" d="M334.55,84.83c-0.2,2.27,0.86,5.66-2.87,6.65c-2.91,0.77-5.35-0.12-5.53-3.76c-0.1-1.98-0.02-3.98-0.06-5.97
		c-0.06-2.83,0.78-4.97,4.05-5.05c3.56-0.08,4.46,2.2,4.41,5.23C334.54,82.77,334.55,83.6,334.55,84.83z"/>
	<path class="st0" d="M304.96,84.88c-0.18,1.65,0.59,3.81-0.93,5.45c-1.7,1.84-4.08,1.43-6.11,1.04c-2.12-0.41-0.95-2.48-1.08-3.79
		c-0.2-1.98-0.19-4-0.01-5.98c0.18-1.97-1.36-5,2.83-4.84c3.27,0.13,5.57,0.95,5.31,4.83C304.9,82.59,304.96,83.59,304.96,84.88z"/>
	<path class="st0" d="M206.11,64.66c14.27-0.04,28.54-0.08,42.81-0.12c0.14,0.14,0.29,0.27,0.43,0.41c0.21,0.61,0.16,1.15-0.39,1.57
		c-14.28,0-28.56,0-42.85,0C205.53,65.9,205.53,65.28,206.11,64.66z"/>
	<path class="st0" d="M206.11,64.66c0,0.62,0.01,1.24,0.01,1.86c-13.95,0-27.9,0-41.85,0c0-0.62,0-1.25,0-1.87
		C178.21,64.65,192.16,64.66,206.11,64.66z"/>
	<path class="st0" d="M338.33,84.3c0-1.16-0.03-2.32,0.01-3.47c0.07-1.88-0.59-4.2,2.69-4.05c2.64,0.12,5.11,0.39,5.42,3.71
		c0.18,1.97-0.04,3.97,0.08,5.95c0.22,3.54-1.26,4.99-4.88,5.21c-4.32,0.26-3.2-2.59-3.32-4.86
		C338.29,85.95,338.33,85.12,338.33,84.3z"/>
	<path class="st0" d="M128.29,84.34c-0.22,3.2,1.03,7.25-4.21,7.28c-4.55,0.02-4.15-3.48-3.91-6.37c0.27-3.2-1.96-8.16,3.83-8.42
		C129.44,76.59,128,81.23,128.29,84.34z"/>
	<path class="st0" d="M271.88,88.59c0.57-2.95,1.27-6.34,1.85-9.75c0.23-1.34,0.73-2.04,2.2-2.06c1.44-0.01,2.18,0.73,2.44,1.96
		c0.79,3.71,1.5,7.44,2.24,11.16c0.13,0.68,0.15,1.37-0.66,1.57c-0.81,0.19-1.57,0.12-2.02-0.85c-1.13-2.46-2.55-2.29-3.82-0.17
		c-0.52,0.86-1.05,1.37-1.88,0.87C271.41,90.81,271.78,89.84,271.88,88.59z"/>
	<path class="st0" d="M332.69,66.58c-5.99-0.01-11.98-0.02-17.97-0.03c-3.57-1.95-7.45-0.48-11.14-1.01
		c-1.61-0.23-3.77,0.94-4.59-1.61c13.84-0.01,27.68-0.02,41.52-0.03c-0.34,2.13-2.07,1.49-3.35,1.65
		C335.62,65.72,333.95,65.24,332.69,66.58z"/>
	<path class="st0" d="M169.34,77.02c1.61,3.87,1,7.83,1,11.74c0,2-1.4,2.83-3.33,2.92c-2.01,0.1-3.99-0.34-4.22-2.51
		c-0.38-3.61-0.26-7.27-0.28-10.92c0-0.99,0.72-1.43,1.68-1.3c1.14,0.16,1.05,1.14,1.07,1.92c0.05,2.66-0.01,5.32,0.05,7.97
		c0.03,1.07-0.29,2.63,1.51,2.47c1.27-0.12,1.13-1.39,1.24-2.36C168.42,83.65,167.29,80.18,169.34,77.02z"/>
	<path class="st0" d="M111.91,79.24c-1.09,1.9-0.5,3.92-0.54,5.84c-0.03,1.4-0.74,3.42,0.72,4.09c1.98,0.9,1.36-1.7,2.27-2.39
		c0.34-0.26,1.13-0.46,1.3-0.29c0.39,0.4,0.73,1.05,0.74,1.61c0.05,2.15-1.02,3.38-3.22,3.56c-2.43,0.2-4.44-0.45-4.67-3.17
		c-0.23-2.79-0.13-5.62,0.01-8.42c0.09-1.92,1.45-2.9,3.23-3.19c2-0.32,3.59,0.36,4.43,2.31c0.33,0.76,0.55,1.86-0.21,2.28
		C113.63,82.77,114.17,79.12,111.91,79.24z"/>
	<path class="st0" d="M247.86,76.76c1.33,0.22,2.78,0.54,3.55,2.06c0.31,0.61,0.53,1.31-0.16,1.76c-0.35,0.23-0.92,0.28-1.36,0.22
		c-0.95-0.13-1.56-2.39-2.69-0.74c-0.95,1.39,0.5,2.37,1.43,3.29c0.82,0.81,1.72,1.57,2.39,2.49c1.21,1.65,1.39,3.5-0.18,4.96
		c-1.64,1.53-3.72,1.32-5.57,0.36c-1.06-0.55-1.79-1.89-1.14-2.96c1.06-1.77,1.79-0.3,2.5,0.58c0.58,0.73,1.35,1.09,2.04,0.25
		c0.58-0.72,0.31-1.67-0.23-2.28c-1.19-1.36-2.79-2.43-3.73-3.93C242.86,79.85,244.48,76.8,247.86,76.76z"/>
	<path class="st0" d="M314.71,84.53c0-1.49-0.02-2.98,0.01-4.47c0.03-1.78,1.21-2.68,2.71-3.14c1.52-0.46,2.99-0.06,4.14,1.02
		c1.02,0.96,1.79,2.42,0.61,3.46c-1.17,1.03-1.95-0.06-2.4-1.32c-0.33-0.92-1.5-1.32-1.78-0.34c-0.86,3.03-0.99,6.26,0.06,9.21
		c0.39,1.11,1.64,0.22,1.86-0.93c0.22-1.12,0.78-2.04,1.95-1.52c1.39,0.62,0.9,2.02,0.49,3.03c-0.81,2.04-2.63,2.3-4.55,2.14
		c-1.93-0.16-3.03-1.2-3.11-3.17c-0.05-1.32-0.01-2.65-0.01-3.98C314.69,84.53,314.7,84.53,314.71,84.53z"/>
	<path class="st0" d="M240.06,77.7c-0.67,2.44-4.35,0.34-4.17,3.61c0.12,2.24,2.22,1.56,3.14,2.7c-0.08,2.02-3.87,0.92-3.19,3.95
		c0.59,2.66,3.5,0.5,4.09,2.51c-5.56,2.6-6.9,1.86-6.92-3.81c0-1.49,0-2.97,0-4.46C233.01,75.97,233.41,75.71,240.06,77.7z"/>
	<path class="st0" d="M95.34,34.63c-1.63-1.13-2.95-0.99-3.8,0.97c-4.28-2.96-5.71-7.75-7.78-12.13c0.33-1.99,0.8-3.8,3.5-2.74
		C90.61,24.97,93.98,29.22,95.34,34.63z"/>
	<path class="st0" d="M332.69,66.58c1.52-4.08,5.62-0.59,7.83-2.68c4.64-0.07,9.27-0.18,13.91-0.19c1.2,0,3-0.53,3.08,1.48
		c0.09,2.13-1.78,1.55-2.94,1.55C347.26,66.73,339.98,66.64,332.69,66.58z"/>
	<path class="st0" d="M229.02,84.87c-2.93,0.43-4.59,1.73-3.94,4.69c0.16,0.71,0.12,1.74-1.02,1.87c-1.32,0.15-1.69-0.75-1.7-1.83
		c-0.03-3.46-0.55-7.03,0.12-10.35c0.95-4.68,4.28-1.94,6.87-1.91c-0.29,3-4.38,0.5-4.31,3.94
		C225.09,84.05,227.82,82.95,229.02,84.87z"/>
	<path class="st0" d="M356.65,84.09c-0.7,2.08-3.87,0.54-3.74,3.48c0.15,3.52,4.07,0.54,4.61,3.01c-5.9,2.38-7.1,1.73-7.12-3.87
		c-0.01-2.16,0.17-4.34-0.04-6.48c-0.3-3.05,1.21-3.84,3.82-3.44c1.16,0.18,3.09-0.78,3.21,1.18c0.1,1.66-1.71,1.05-2.74,1.23
		c-1.17,0.21-1.64,0.83-1.67,2.02C352.92,83.8,355.65,82.62,356.65,84.09z"/>
	<path class="st0" d="M208.45,82.16c2.04-1.35,0.74-5.95,3.73-4.88c1.84,0.66-0.58,3.99-1.19,6.06c-0.57,1.93-1.07,3.79-1,5.8
		c0.04,1.17,0.08,2.48-1.66,2.38c-1.47-0.09-1.29-1.32-1.21-2.22c0.29-3.12-1.32-5.74-2.01-8.6c-0.28-1.18-2.15-2.99,0.08-3.65
		c2.02-0.6,1.8,1.84,2.41,3.05C207.9,80.68,208.1,81.31,208.45,82.16z"/>
	<path class="st0" d="M197.06,76.67c2.23,0.3,6.17-1.04,2.27,3.68c-1.4,1.7-0.36,5.39-0.5,8.17c-0.06,1.21,0.41,2.97-1.58,2.97
		c-1.72,0-1.13-1.6-1.34-2.63c-0.73-3.53,1.67-7.45-2.32-10.77C192.38,77.07,195.82,77.2,197.06,76.67z"/>
	<path class="st0" d="M262.87,77.95c-4.78,3.31-1.84,8.36-2.82,12.54c-0.17,0.73-0.74,1.22-1.42,0.98c-0.52-0.18-1.2-0.78-1.25-1.25
		c-0.18-1.81-0.11-3.64-0.17-5.46c-0.05-1.48-0.1-2.97-0.23-4.45c-0.11-1.23-3.53-1.66-1.33-3.14c1.8-1.21,4.47-0.71,6.73-0.07
		C262.59,77.16,262.7,77.63,262.87,77.95z"/>
	<path class="st0" d="M248.92,64.54c0.03-0.2,0.07-0.4,0.11-0.6c7.01,0.01,14.02,0.01,21.03,0.02c2.56,0.3,5.14,0.07,7.7,0.14
		c1.59,0.05,3.04,0.19,2.09,2.42c-5.31,0-10.63,0-15.94,0c-2.74-1.76-5.79-0.63-8.69-0.94c-2.09-0.22-4.32,0.53-6.21-0.96
		L248.92,64.54z"/>
	<path class="st0" d="M279.86,66.52c-0.47-2.66-2.6-1.73-4.19-1.93c-1.86-0.24-3.84,0.51-5.6-0.63c6.64,0,13.27,0.01,19.91,0.01
		c1.1,0.21,2.22,0.07,3.32,0.15c1.54,0.12,2.5,0.66,1.51,2.4C289.82,66.52,284.84,66.52,279.86,66.52z"/>
	<path class="st0" d="M294.81,66.52c-0.37-3.22-3.55-1.08-4.83-2.55c3.01-0.01,6.01-0.02,9.02-0.03c3.77,1.38,7.67,0.27,11.49,0.67
		c1.61,0.17,3.78-0.77,4.24,1.95C308.08,66.54,301.45,66.53,294.81,66.52z"/>
	<path class="st0" d="M186.92,84.39c1.28-2.31-1.75-6.72,1.71-6.94c2.42-0.15,1.17,4.47,1.15,6.89c-0.02,2.37,1.54,6.73-1.29,6.74
		C185.62,91.09,187.98,86.71,186.92,84.39z"/>
	<path class="st0" d="M60.6,8.8c0.35-1.28,0.69-2.57,1.04-3.85c3.13,0.59,6.13,1.58,8.97,3.03c1.22,1.76,0.59,3.07-0.99,4.16
		C66.2,12.14,62.73,12.28,60.6,8.8z"/>
	<path class="st0" d="M69.48,12.02c0.38-1.35,0.75-2.7,1.13-4.05c2.19,0.88,4.39,1.73,6.07,3.5c0.84,1.57,0.46,2.94-0.7,4.18
		C72.74,16.36,70.76,14.81,69.48,12.02z"/>
	<path class="st0" d="M75.58,15.52c0.36-1.35,0.73-2.7,1.09-4.04c2.32,1.63,5.09,2.7,6.7,5.25c-0.79,1.31-1.69,2.52-3.09,3.26
		C77.78,19.49,76.21,18,75.58,15.52z"/>
	<path class="st0" d="M249.02,64.62c3.71-0.01,7.42-0.05,11.12-0.02c1.53,0.01,3.4-0.47,3.77,1.91c-4.98,0-9.97,0-14.95,0
		C248.98,65.89,249,65.25,249.02,64.62z"/>
	<path class="st0" d="M80.59,19.52c0.1-1.76,1.01-2.71,2.79-2.79c1.69,0.95,2.9,2.37,3.89,4c-1.88,0.13-2.64,1.28-2.74,3.03
		C81.87,23.58,80.18,22.53,80.59,19.52z"/>
	<path class="st0" d="M154.45,89.62c0.39-2.04,0.78-4.08,1.18-6.12c0.24,0.03,0.49,0.06,0.73,0.1c0,2.63,0,5.26,0,7.89
		C155.72,90.86,155.09,90.24,154.45,89.62z"/>
	<path class="st0" d="M149.23,91.47c0-2.36,0-4.73,0-7.09c1.2,1.66,2.31,3.23,1.93,5.24C150.51,90.24,149.87,90.85,149.23,91.47z"/>
	<path class="st0" d="M34.81,91.22c-0.41,1.22-0.82,2.44-1.23,3.65c-7.88-2.7-14.11-7.6-19.1-14.2c0.49-1.59,1.58-2.47,3.21-2.71
		c1.8,0.09,2.98,1.29,4.1,2.47c3.19,3.36,6.75,6.2,10.88,8.33C33.67,89.28,34.74,89.84,34.81,91.22z"/>
	<path class="st0" d="M17.8,78.55c-1.1,0.71-2.21,1.41-3.31,2.12c-3.14-3.17-5.28-6.93-6.67-11.15c-0.94-2.48-0.57-4.22,2.5-4.44
		C13.77,69.04,16.57,73.36,17.8,78.55z"/>
	<path class="st0" d="M4.04,48.53c-0.13-4.86,1.01-9.45,2.91-13.88c1.29-0.93,2.62-1.19,4.01-0.24c1.33,5.28-0.71,10.12-1.96,15.06
		C7.14,50.31,6.03,47.06,4.04,48.53z"/>
	<path class="st0" d="M10.88,34.64c-1.31,0-2.62,0-3.93,0.01c1.02-3.28,2.25-6.46,4.62-9.05c1.45,0.02,2.9,0.04,4.35,0.07
		C16.35,29.85,14.11,32.52,10.88,34.64z"/>
	<path class="st0" d="M4.04,48.53c1.14-0.63,0.54-3.3,2.67-2.59c1.76,0.58,0.86,2.46,1.22,3.74c1.12,1.19,1.06,2.56,0.66,4
		C7.06,55.9,5.53,56,4.02,53.65C4.02,51.95,4.03,50.24,4.04,48.53z"/>
	<path class="st0" d="M4.02,53.65c1.37,0.68,2.76,1.68,3.93-0.3c2.88,1.26,2.04,3.56,1.62,5.74c-1,1.6-2.25,2.96-3.96,3.84
		C4.34,59.97,3.79,56.88,4.02,53.65z"/>
	<path class="st0" d="M5.61,62.94c0.31-1.83,1.01-3.29,3.19-3.32c1.45,1.74,2.88,3.49,1.77,5.99c-2.47,0.21-2.8,1.94-2.75,3.92
		C6.44,67.55,5.72,65.34,5.61,62.94z"/>
	<path class="st0" d="M160.35,29.59c-0.29,1.89-0.69,3.83-0.87,5.78c-0.21,2.18-1.69,2.03-3.21,2c-2.03-0.04-1.84-1.35-1.64-2.75
		c0.26-1.79,0.51-3.58,0.64-5.38c0.15-2.06,0.17-4.02,3.15-3.79C161.68,25.71,159.86,28.08,160.35,29.59z"/>
	<path class="st0" d="M331.68,84.12c0,1.55,0.03,2.54-0.01,3.52c-0.03,0.82-0.09,1.74-1.2,1.78c-0.98,0.03-1.45-0.67-1.53-1.56
		c-0.09-0.98-0.24-2.01-0.06-2.95c0.37-1.95-1.23-5.48,1.32-5.52C333.27,79.33,330.62,82.97,331.68,84.12z"/>
	<path class="st0" d="M299.61,84.51c0-1.34-0.03-2.33,0.01-3.32c0.03-0.84,0.16-1.73,1.24-1.75c0.93-0.01,1.5,0.61,1.59,1.53
		c0.09,0.98,0.26,2.01,0.08,2.96c-0.36,1.88,1.29,5.25-1.73,5.23C298.48,89.15,300.13,85.88,299.61,84.51z"/>
	<path class="st0" d="M340.81,84.86c0-1.27-0.02-2.25,0.01-3.24c0.02-0.98,0.03-2.1,1.35-2.18c1.74-0.1,1.55,1.29,1.62,2.4
		c0.05,0.82,0.15,1.66-0.01,2.45c-0.35,1.74,1.11,4.82-1.39,4.93C339.3,89.36,341.58,86.11,340.81,84.86z"/>
	<path class="st0" d="M125.5,83.9c0,1.17,0.1,1.85-0.02,2.48c-0.21,1.12,0.67,3.04-1.48,2.94c-1.45-0.07-1.42-1.56-1.45-2.72
		c-0.02-0.66-0.13-1.35,0.01-1.97c0.42-1.88-1.28-5.26,1.62-5.28C126.64,79.33,124.76,82.7,125.5,83.9z"/>
	<path class="st0" d="M276.18,82.47c0.55,1.42,1.44,2.95-0.06,4.71C274.02,85.59,275.49,84.04,276.18,82.47z"/>
	<path class="st0" d="M72.28,52.72c6.61,4.14,6.52,9.75-0.17,13.88c-7.7,4.75-15.35,9.56-23.19,14.45
		c-1.8-8.61-1.19-10.44,4.14-13.29c1.42,1.03,0,2.86,1.36,4.24c5.11-3.2,10.34-6.36,15.45-9.71c2.74-1.8,1.67-4.28,0.7-6.62
		C70.12,54.08,70.33,52.89,72.28,52.72z"/>
	<path class="st0" d="M46.73,30.55c-0.99,0.76-1.97,1.52-2.96,2.28c-2.09,3.4-5.56,4.64-9.09,5.78c-1.33,0.67-2.66,1.34-4,2.01
		c-1.39,1.34-2.7,2.9-4.99,2.01c-0.41-2.21-0.39-4.12,1.92-5.53c8.5-5.21,16.93-10.54,25.48-15.89c1.18,1.98,0.64,3.74,0.51,5.46
		C52.22,29.56,49.52,30.14,46.73,30.55z"/>
	<path class="st0" d="M43.44,54.64c3.97,3.27,5.87,2.47,4.94-3.09c8.47,2.01,3.96,8.37,4.71,13.32c-4.15-2.71-8.31-5.41-12.46-8.12
		C40.5,54.62,41.27,53.7,43.44,54.64z"/>
	<path class="st0" d="M64.76,54.3c0.89,0.69,1.71,1.49,2.67,2.05c3.18,1.83,2.61,3.82,0.09,5.54c-3.49,2.38-7.16,4.5-10.91,6.83
		c-2-4.12,0.66-5.4,3.1-7.16c1.27-0.92,4.98-0.66,2.98-4.13C62.25,55.63,63.37,54.88,64.76,54.3z"/>
	<path class="st0" d="M34.52,45.67c-3.28-2.73-1.14-4.48,1.13-6.2c2.55-2.69,5.67-4.48,9.11-5.78c1.99,2.71,1.9,3.91-0.59,5.66
		c-2.01,1.41-4.11,2.69-6.17,4.03C37.38,44.98,36.58,46.29,34.52,45.67z"/>
	<path class="st0" d="M34.52,45.67c1.16-0.76,2.31-1.53,3.47-2.29c2.26,1.34,4.52,2.69,6.79,4.03c1.99,1.18,2.14,3.23,1.15,4.7
		c-1.02,1.52-2.34-0.31-3.29-0.89C39.85,49.51,37.21,47.54,34.52,45.67z"/>
	<path class="st0" d="M72.28,52.72c-0.57,0.98-1.14,1.96-1.7,2.94c-3.36-2.28-6.72-4.56-10.08-6.84c-0.25-1.88,0.65-2.58,2.43-2.38
		C66.3,48.13,69.62,49.94,72.28,52.72z"/>
	<path class="st0" d="M49.69,48.42c-2-1.28-0.84-3.17-0.92-4.81c1.19-1.89,2.44-3.69,5.13-3.09c1.87,0.6,3.41,1.69,4.76,3.08
		c-0.15,1.33-1.03,2.11-2.08,2.77c-0.95-0.24-1.89-0.49-2.84-0.73C52.53,46.78,51.48,48.14,49.69,48.42z"/>
	<path class="st0" d="M43.44,54.64c-1.43,0.04-2.3,0.84-2.81,2.11C38,55,35.37,53.26,32.74,51.51c-0.04-2.33,1.15-2.77,3.11-2.02
		C38.56,50.95,41.37,52.24,43.44,54.64z"/>
	<path class="st0" d="M25.7,42.63c1.66-0.67,3.32-1.34,4.99-2.01c0.13,1.92,0.26,3.84,0.39,5.75c-0.57,1.53-1.94,1.7-3.28,1.92
		C24.73,47.29,25.45,44.87,25.7,42.63z"/>
	<path class="st0" d="M46.73,30.55c2.29-1.29,4.59-2.59,6.88-3.88c0.9,3.9-0.13,6.7-4.46,7.63C47.61,33.6,49.74,30.37,46.73,30.55z"
		/>
	<path class="st0" d="M27.79,48.3c0.74-1.24,1.94-1.71,3.28-1.92c1.82,0.69,3.48,1.62,4.77,3.12c-1.4,0.12-2.51,0.67-3.11,2.02
		C31.09,50.44,29.44,49.37,27.79,48.3z"/>
	<path class="st0" d="M64.76,54.3c-0.69,1.04-1.37,2.08-2.06,3.13c-1.62-0.98-3.24-1.97-4.86-2.95c0.25-2.7,2.02-2.59,3.96-2.13
		C62.78,52.99,63.77,53.65,64.76,54.3z"/>
	<path class="st0" d="M61.8,52.34c-1.51,0.36-2.98,0.8-3.97,2.13c-2.99-0.98-1.56-3.33-2.02-5.58C58.5,49.5,60.2,50.83,61.8,52.34z"
		/>
	<path class="st0" d="M53.89,40.52c-1.71,1.03-3.42,2.06-5.13,3.09c0-2.02,0-4.05,0-6.33C50.99,38.09,52.53,39.15,53.89,40.52z"/>
	<path class="st0" d="M44.75,33.69c-2.78,2.32-5.84,4.22-9.11,5.78c-0.32-0.29-0.64-0.57-0.95-0.86c2.71-2.43,5.88-4.14,9.09-5.78
		C44.1,33.12,44.42,33.4,44.75,33.69z"/>
	<path class="st0" d="M56.58,46.37c0.13-1.34,0.84-2.25,2.08-2.77c1.64,0.62,3.09,1.52,4.27,2.83c-1.12,0.48-1.96,1.24-2.43,2.38
		C59.19,48,57.88,47.19,56.58,46.37z"/>
	<path class="st0" d="M49.69,48.42c0.98-1.46,2.05-2.81,4.05-2.78c-0.02,1.56,0.44,3.17-0.35,4.71
		C51.7,50.52,50.78,49.31,49.69,48.42z"/>
</g>
</svg>
