<svg width="37" height="34" viewBox="0 0 37 34" fill="none" xmlns="http://www.w3.org/2000/svg">
<path d="M30.8256 9.47424C32.2076 8.71504 33.2417 7.51958 33.7348 6.11108C32.4362 6.81913 31.0153 7.3179 29.5337 7.58583C27.4796 5.58907 24.225 5.10316 21.5886 6.39959C18.9522 7.69602 17.5866 10.4539 18.2549 13.1321C12.9355 12.8867 7.97964 10.5777 4.6204 6.77974C2.86728 9.55842 3.76316 13.1105 6.66773 14.8972C5.61741 14.8662 4.59038 14.6049 3.67227 14.1351C3.67227 14.1606 3.67227 14.1861 3.67227 14.2116C3.67288 17.106 5.89285 19.5993 8.98023 20.1729C8.006 20.4165 6.98409 20.4523 5.99248 20.2777C6.86075 22.753 9.34337 24.4488 12.173 24.4994C9.82943 26.1897 6.93517 27.1063 3.95594 27.1018C3.42787 27.1025 2.90022 27.0746 2.37573 27.0182C5.40108 28.8047 8.92222 29.7529 12.5184 29.7496C17.5214 29.7812 22.3296 27.9687 25.8672 24.7176C29.4049 21.4665 31.3769 17.0481 31.3421 12.4507C31.3421 12.1872 31.3354 11.9251 31.3221 11.6644C32.6178 10.8039 33.736 9.73796 34.6243 8.51658C33.4172 9.00825 32.1368 9.33105 30.8256 9.47424Z" fill="#0B2739"/>
</svg>
